<svg xmlns="http://www.w3.org/2000/svg" xmlns:xlink="http://www.w3.org/1999/xlink" aria-hidden="true" role="img" class="iconify iconify--logos" width="31.88" height="32" preserveAspectRatio="xMidYMid meet" viewBox="0 0 256 257"><defs><linearGradient id="IconifyId1813088fe1fbc01fb466" x1="-.828%" x2="57.636%" y1="7.652%" y2="78.411%"><stop offset="0%" stop-color="#41D1FF"></stop><stop offset="100%" stop-color="#BD34FE"></stop></linearGradient><linearGradient id="IconifyId1813088fe1fbc01fb467" x1="43.376%" x2="50.316%" y1="2.242%" y2="89.731%"><stop offset="0%" stop-color="#FFBD4F"></stop><stop offset="100%" stop-color="#FF980E"></stop></linearGradient></defs><path fill="url(#IconifyId1813088fe1fbc01fb466)" d="M255.153 37.938L134.897 252.976c-2.523 4.52-9.213 4.568-11.808.096L.875 37.958c-2.743-4.735 1.235-10.46 6.589-9.524l123.807 21.645a6.875 6.875 0 0 0 2.425-.003l114.904-21.618c5.32-.92 9.267 4.75 6.553 9.48Z"></path><path fill="url(#IconifyId1813088fe1fbc01fb467)" d="M185.432.063L96.44 17.501a3.438 3.438 0 0 0-2.768 3.184l-8.329 118.035c-.187 2.663 2.406 4.55 4.872 3.572l32.903-13.052c2.424-.963 5.157.798 5.197 3.396l1.213 78.454c.046 2.99 3.357 4.755 5.724 3.035l66.872-48.482a3.437 3.437 0 0 0 1.423-2.798V3.445c0-2.156-1.975-3.746-4.114-3.382Z"></path></svg>
